<?xml version="1.0" standalone="no"?>
<!DOCTYPE svg PUBLIC "-//W3C//DTD SVG 20010904//EN"
 "http://www.w3.org/TR/2001/REC-SVG-20010904/DTD/svg10.dtd">
<svg version="1.0" xmlns="http://www.w3.org/2000/svg"
 width="700.000000pt" height="700.000000pt" viewBox="0 0 700.000000 700.000000"
 preserveAspectRatio="xMidYMid meet">
<metadata>
Created by potrace 1.11, written by Peter Selinger 2001-2013
</metadata>
<g transform="translate(0.000000,700.000000) scale(0.100000,-0.100000)"
fill="#000000" stroke="none">
<path d="M3240 5997 c-51 -17 -119 -92 -165 -181 -22 -44 -51 -87 -65 -98 -15
-11 -69 -26 -135 -37 -144 -25 -186 -43 -239 -102 -44 -49 -47 -58 -86 -218
-35 -147 -60 -164 -222 -155 -263 16 -431 -106 -492 -359 -34 -138 -66 -178
-156 -192 -77 -12 -123 -47 -172 -127 -37 -62 -53 -78 -100 -103 -75 -40 -93
-58 -128 -128 -40 -81 -40 -140 1 -238 18 -43 33 -99 36 -134 5 -59 0 -83 -45
-255 -32 -121 -9 -205 92 -334 51 -64 55 -85 31 -162 -30 -100 -12 -169 53
-200 62 -29 141 5 312 133 189 141 207 145 371 71 79 -36 104 -42 159 -43 57
0 73 5 133 39 87 48 231 164 381 305 133 125 179 150 249 135 l42 -10 -3 -64
c-4 -106 -79 -502 -101 -539 -7 -11 -14 -10 -39 8 -53 37 -121 47 -199 27
-117 -28 -142 -60 -150 -190 -5 -80 -5 -82 28 -125 83 -108 88 -127 32 -136
-115 -18 -151 -44 -237 -174 -52 -77 -55 -86 -42 -105 12 -19 11 -29 -5 -81
-10 -33 -28 -113 -39 -179 -12 -71 -28 -132 -40 -152 -24 -38 -19 -77 13 -99
31 -21 46 -19 53 10 3 14 12 25 20 25 10 0 11 6 3 30 -14 39 20 192 62 281 46
96 52 64 26 -135 l-21 -167 28 -23 c27 -21 28 -25 24 -95 l-4 -74 -49 -41
c-91 -76 -120 -104 -113 -112 5 -4 40 2 79 14 76 23 89 22 89 -8 0 -10 7 -20
15 -24 13 -5 14 -35 8 -227 -6 -209 -5 -223 12 -235 42 -31 123 -10 164 42 27
34 13 54 -35 54 l-34 0 0 88 c1 115 17 235 33 247 8 6 20 21 27 34 l13 25 18
-35 c18 -31 19 -50 13 -245 -6 -210 -6 -211 16 -227 29 -20 66 -8 109 37 38
40 39 71 1 71 -24 0 -25 2 -22 65 1 36 10 113 18 171 15 102 17 106 46 117
l30 11 -3 80 -4 79 35 6 c69 11 428 17 585 9 l160 -8 3 -37 c3 -32 8 -39 30
-45 15 -3 114 -1 222 5 194 12 196 12 285 -12 50 -14 117 -34 149 -45 69 -24
82 -26 89 -8 3 7 -39 50 -99 101 -62 52 -104 96 -104 106 0 11 -25 85 -55 167
-53 142 -95 285 -95 324 0 10 9 33 20 51 25 42 25 98 0 181 -21 69 -63 117
-101 117 -10 0 -19 5 -19 12 0 21 -119 253 -148 286 -33 39 -98 57 -174 46
-41 -5 -48 -3 -48 11 0 22 44 224 75 340 13 50 29 109 35 132 l11 42 47 -21
c36 -16 67 -22 132 -22 105 0 157 20 315 119 133 84 205 114 289 122 85 8 146
-8 296 -77 152 -70 209 -84 325 -84 207 0 300 82 329 290 16 113 25 128 130
207 82 62 136 126 136 162 0 46 -31 123 -63 156 -19 19 -65 51 -103 71 -105
56 -121 79 -139 213 -10 69 -32 132 -65 185 -45 70 -57 74 -200 75 -141 0
-167 9 -255 85 -40 34 -53 40 -93 40 -26 0 -69 -7 -96 -15 -69 -21 -128 -19
-159 5 -14 11 -46 55 -71 98 -77 132 -124 162 -256 162 -87 1 -136 24 -226
110 -89 84 -140 122 -216 161 -67 34 -79 50 -103 139 -43 161 -162 322 -281
381 -71 35 -165 46 -224 26z m427 -3326 c20 -13 42 -43 64 -86 l32 -66 -34
-30 c-31 -27 -34 -27 -41 -10 -4 11 -16 22 -28 26 -33 10 -65 119 -49 163 10
27 16 27 56 3z m57 -520 c-20 -90 -96 -193 -210 -282 l-71 -57 -16 33 c-15 32
-15 33 15 61 44 42 143 164 160 199 9 17 19 44 22 61 l7 31 49 -10 c47 -9 49
-11 44 -36z"/>
</g>
</svg>
