<?xml version="1.0" standalone="no"?>
<!DOCTYPE svg PUBLIC "-//W3C//DTD SVG 20010904//EN"
 "http://www.w3.org/TR/2001/REC-SVG-20010904/DTD/svg10.dtd">
<svg version="1.0" xmlns="http://www.w3.org/2000/svg"
 width="260.000000pt" height="260.000000pt" viewBox="0 0 260.000000 260.000000"
 preserveAspectRatio="xMidYMid meet">
<metadata>
Created by potrace 1.11, written by Peter Selinger 2001-2013
</metadata>
<g transform="translate(0.000000,260.000000) scale(0.100000,-0.100000)"
fill="#000000" stroke="none">
<path d="M816 2547 c-15 -13 -27 -38 -30 -62 -10 -71 -17 -107 -46 -246 -49
-232 -108 -348 -221 -432 -61 -46 -139 -67 -292 -81 -111 -11 -99 -129 13
-135 136 -6 252 -49 328 -121 23 -23 42 -43 42 -45 0 -2 14 -26 30 -52 32 -49
78 -183 101 -288 7 -33 13 -62 14 -65 1 -3 5 -27 10 -55 4 -27 9 -59 11 -70 2
-11 7 -36 10 -55 8 -52 24 -78 50 -84 31 -8 73 13 79 38 2 12 16 77 30 145 31
153 85 316 132 399 47 85 138 177 205 206 51 23 122 40 201 49 47 6 77 32 77
67 0 34 -30 62 -72 66 -18 2 -55 6 -83 9 -27 3 -81 21 -121 40 -177 85 -289
301 -355 682 -7 42 -19 79 -29 88 -28 25 -58 26 -84 2z"/>
<path d="M1864 1302 c-35 -5 -50 -32 -62 -107 -33 -203 -71 -296 -147 -363
-62 -54 -122 -73 -273 -86 -52 -5 -82 -29 -82 -67 0 -39 37 -65 96 -67 75 -4
154 -22 204 -47 107 -55 158 -152 196 -369 19 -113 33 -136 79 -136 46 0 60
23 79 135 19 106 47 208 70 253 21 40 77 97 116 117 39 20 146 45 197 45 46 0
94 15 105 33 14 22 8 64 -11 81 -11 10 -39 19 -63 22 -115 11 -138 15 -175 28
-147 52 -208 162 -248 446 -9 63 -36 90 -81 82z"/>
</g>
</svg>
